<?xml version="1.0" encoding="utf-8"?>
<!-- Generator: Adobe Illustrator 22.1.0, SVG Export Plug-In . SVG Version: 6.00 Build 0)  -->
<svg version="1.1"
	 id="Layer_1" inkscape:version="0.92.3 (2405546, 2018-03-11)" sodipodi:docname="GUID_icon16x16.svg" xmlns:cc="http://creativecommons.org/ns#" xmlns:dc="http://purl.org/dc/elements/1.1/" xmlns:inkscape="http://www.inkscape.org/namespaces/inkscape" xmlns:rdf="http://www.w3.org/1999/02/22-rdf-syntax-ns#" xmlns:sodipodi="http://sodipodi.sourceforge.net/DTD/sodipodi-0.dtd" xmlns:svg="http://www.w3.org/2000/svg"
	 xmlns="http://www.w3.org/2000/svg" xmlns:xlink="http://www.w3.org/1999/xlink" x="0px" y="0px" viewBox="0 0 16 16"
	 style="enable-background:new 0 0 16 16;" xml:space="preserve">
<style type="text/css">
	.st0{display:none;}
	.st1{display:inline;}
	.st2{font-family:'Helvetica';}
	.st3{font-size:24px;}
	.st4{fill:none;stroke:#000000;stroke-linecap:square;stroke-linejoin:bevel;stroke-miterlimit:10;}
	.st5{fill:none;stroke:#999999;stroke-linecap:round;stroke-linejoin:round;stroke-miterlimit:10;}
</style>
<sodipodi:namedview  bordercolor="#666666" borderopacity="1" gridtolerance="10" guidetolerance="10" id="namedview21" inkscape:current-layer="Layer_1" inkscape:cx="8" inkscape:cy="8" inkscape:pageopacity="0" inkscape:pageshadow="2" inkscape:window-height="1177" inkscape:window-maximized="1" inkscape:window-width="1920" inkscape:window-x="1912" inkscape:window-y="-8" inkscape:zoom="14.75" objecttolerance="10" pagecolor="#ffffff" showgrid="false">
	</sodipodi:namedview>
<g id="Layer_1_1_" class="st0">
	<g id="svg8" inkscape:version="0.92.3 (2405546, 2018-03-11)" sodipodi:docname="GUID.svg" class="st1">
		
			<sodipodi:namedview  bordercolor="#666666" borderopacity="1.0" id="base" inkscape:current-layer="layer1" inkscape:cx="5.7231317" inkscape:cy="16.730272" inkscape:document-units="mm" inkscape:pageopacity="0.0" inkscape:pageshadow="2" inkscape:window-height="1177" inkscape:window-maximized="1" inkscape:window-width="1920" inkscape:window-x="-8" inkscape:window-y="-8" inkscape:zoom="22.4" pagecolor="#ffffff" showgrid="false" units="px">
			</sodipodi:namedview>
		
			<g id="layer1" transform="translate(0,-286.94582)" inkscape:groupmode="layer" inkscape:label="1. r‚Äö√Ñ√∂‚àö√ë‚àö‚àÇ‚Äö√†√∂‚àö√´‚Äö√†√∂‚Äö√†√á‚Äö√Ñ√∂‚àö‚Ä†‚àö‚àÇ‚Äö√Ñ√∂‚àö√ë‚Äö√Ñ‚Ä†‚Äö√Ñ√∂‚àö‚Ä†‚àö‚àÇ‚Äö√Ñ√∂‚àö‚Ä†‚àö√°¬¨¬®¬¨¬Æ¬¨¬®¬¨√Ü¬¨¬®¬¨¬Æ¬¨¬®¬¨¬©teg">
			<text id="text5" transform="matrix(1 0 0 1 -7.0801 300.9243)" class="st2 st3">{}</text>
		</g>
	</g>
	<g id="Layer_2_1_" class="st1">
		<path id="path9" class="st4" d="M8.5,12.5H8.2c-1,0-1.7-0.8-1.7-1.7V9.6c0-0.7-0.4-1.3-1-1.6l-1-0.5l1-0.5c0.6-0.3,1-0.9,1-1.6
			V4.2c0-1,0.8-1.7,1.7-1.7h0.3"/>
		<path id="path11" class="st4" d="M11.5,2.5h0.3c1,0,1.7,0.8,1.7,1.7v1.2c0,0.7,0.4,1.3,1,1.6l1,0.5l-1,0.5c-0.6,0.3-1,0.9-1,1.6
			v1.2c0,1-0.8,1.7-1.7,1.7h-0.3"/>
	</g>
</g>
<g id="Layer_2_2_">
	<polyline id="polyline15" class="st5" points="8.5,4.5 12.5,7.5 8.5,10.5 	"/>
	<polyline id="polyline17" class="st5" points="5.5,10.5 1.5,7.5 5.5,4.5 	"/>
</g>
</svg>
