<?xml version="1.0" encoding="utf-8"?>
<!-- Generator: Adobe Illustrator 22.1.0, SVG Export Plug-In . SVG Version: 6.00 Build 0)  -->
<svg version="1.1"
	 id="svg8" inkscape:version="0.92.3 (2405546, 2018-03-11)" sodipodi:docname="insert.svg" xmlns:cc="http://creativecommons.org/ns#" xmlns:dc="http://purl.org/dc/elements/1.1/" xmlns:inkscape="http://www.inkscape.org/namespaces/inkscape" xmlns:rdf="http://www.w3.org/1999/02/22-rdf-syntax-ns#" xmlns:sodipodi="http://sodipodi.sourceforge.net/DTD/sodipodi-0.dtd" xmlns:svg="http://www.w3.org/2000/svg"
	 xmlns="http://www.w3.org/2000/svg" xmlns:xlink="http://www.w3.org/1999/xlink" x="0px" y="0px" viewBox="0 0 16 22"
	 style="enable-background:new 0 0 16 22;" xml:space="preserve">
<style type="text/css">
	.st0{fill:none;stroke:#FFFFFF;stroke-miterlimit:10;}
</style>
<sodipodi:namedview  bordercolor="#666666" borderopacity="1.0" id="base" inkscape:current-layer="layer1" inkscape:cx="15.160884" inkscape:cy="18.510225" inkscape:document-units="mm" inkscape:pageopacity="0.0" inkscape:pageshadow="2" inkscape:window-height="1177" inkscape:window-maximized="1" inkscape:window-width="1920" inkscape:window-x="-8" inkscape:window-y="-8" inkscape:zoom="15.839192" pagecolor="#ffffff" showgrid="false" units="px">
	</sodipodi:namedview>
<line class="st0" x1="12.5" y1="16.5" x2="12.5" y2="9.5"/>
<path class="st0" d="M9,8.5h1.6c0.6,0,1.1,0.2,1.5,0.6l0.4,0.4l0.4-0.4c0.4-0.4,0.9-0.6,1.5-0.6H16"/>
<path class="st0" d="M16,17.5h-1.6c-0.6,0-1.1-0.2-1.5-0.6l-0.4-0.4l-0.4,0.4c-0.4,0.4-0.9,0.6-1.5,0.6H9"/>
<polyline class="st0" points="6,10 8.5,12.5 6,15 "/>
<line class="st0" x1="0" y1="7.5" x2="6" y2="7.5"/>
<line class="st0" x1="0" y1="3.5" x2="6" y2="3.5"/>
<line class="st0" x1="0" y1="5.5" x2="4" y2="5.5"/>
<polyline class="st0" points="8.5,12.5 2.5,12.5 2.5,9 "/>
</svg>
