<?xml version="1.0" encoding="UTF-8" standalone="no"?>
<!-- Generator: Adobe Illustrator 22.1.0, SVG Export Plug-In . SVG Version: 6.00 Build 0)  -->

<svg
   xmlns:dc="http://purl.org/dc/elements/1.1/"
   xmlns:cc="http://creativecommons.org/ns#"
   xmlns:rdf="http://www.w3.org/1999/02/22-rdf-syntax-ns#"
   xmlns:svg="http://www.w3.org/2000/svg"
   xmlns="http://www.w3.org/2000/svg"
   xmlns:sodipodi="http://sodipodi.sourceforge.net/DTD/sodipodi-0.dtd"
   xmlns:inkscape="http://www.inkscape.org/namespaces/inkscape"
   version="1.1"
   x="0px"
   y="0px"
   viewBox="0 0 16 16"
   style="enable-background:new 0 0 16 16;"
   xml:space="preserve"
   id="svg17"
   sodipodi:docname="parameters_icon16x16.svg"
   inkscape:version="0.92.3 (2405546, 2018-03-11)"><metadata
   id="metadata23"><rdf:RDF><cc:Work
       rdf:about=""><dc:format>image/svg+xml</dc:format><dc:type
         rdf:resource="http://purl.org/dc/dcmitype/StillImage" /></cc:Work></rdf:RDF></metadata><defs
   id="defs21" /><sodipodi:namedview
   pagecolor="#ffffff"
   bordercolor="#666666"
   borderopacity="1"
   objecttolerance="10"
   gridtolerance="10"
   guidetolerance="10"
   inkscape:pageopacity="0"
   inkscape:pageshadow="2"
   inkscape:window-width="1920"
   inkscape:window-height="1177"
   id="namedview19"
   showgrid="false"
   inkscape:zoom="14.75"
   inkscape:cx="8"
   inkscape:cy="8"
   inkscape:window-x="1912"
   inkscape:window-y="-8"
   inkscape:window-maximized="1"
   inkscape:current-layer="svg17" />
<style
   type="text/css"
   id="style2">
	.st0{display:none;}
	.st1{display:inline;}
	.st2{font-family:'Helvetica';}
	.st3{font-size:14.6217px;}
	.st4{fill:#263238;}
</style>
<g
   id="Layer_1"
   inkscape:version="0.92.3 (2405546, 2018-03-11)"
   sodipodi:docname="parameters_icon16x16.svg"
   class="st0">
	
		<sodipodi:namedview
   bordercolor="#666666"
   borderopacity="1"
   gridtolerance="10"
   guidetolerance="10"
   id="namedview14"
   inkscape:current-layer="Layer_1"
   inkscape:cx="5.4900276"
   inkscape:cy="6.3961333"
   inkscape:pageopacity="0"
   inkscape:pageshadow="2"
   inkscape:window-height="1177"
   inkscape:window-maximized="1"
   inkscape:window-width="1920"
   inkscape:window-x="1912"
   inkscape:window-y="-8"
   inkscape:zoom="20.85965"
   objecttolerance="10"
   pagecolor="#ffffff"
   showgrid="false">
		</sodipodi:namedview>
	<g
   id="svg8"
   inkscape:version="0.92.3 (2405546, 2018-03-11)"
   sodipodi:docname="comment_icon16x21.svg">
		
			<sodipodi:namedview
   bordercolor="#666666"
   borderopacity="1.0"
   id="base"
   inkscape:current-layer="layer1"
   inkscape:cx="-59.090085"
   inkscape:cy="5.0600475"
   inkscape:document-units="mm"
   inkscape:pageopacity="0.0"
   inkscape:pageshadow="2"
   inkscape:window-height="1177"
   inkscape:window-maximized="1"
   inkscape:window-width="1920"
   inkscape:window-x="-8"
   inkscape:window-y="-8"
   inkscape:zoom="7.919596"
   pagecolor="#ffffff"
   showgrid="false"
   units="px">
			</sodipodi:namedview>
		
			<g
   id="layer1"
   transform="translate(0,-291.44374)"
   inkscape:groupmode="layer"
   inkscape:label="1. r‚Äö√†√∂¬¨¬©teg"
   class="st1">
			<text
   id="text5"
   transform="matrix(1 0 0 1 9.9277 292.7308)"
   class="st2 st3">!</text>

		</g>
	</g>
	<path
   id="path851"
   inkscape:connector-curvature="0"
   class="st1"
   d="M10.3,6.6L10.3,6.6c-0.2,0-0.4-0.2-0.3-0.4l0.5-3   c0.1-0.2,0.3-0.4,0.5-0.3l0,0c0.2,0.1,0.4,0.3,0.3,0.5l-0.5,3C10.8,6.6,10.6,6.7,10.3,6.6z" />
	<path
   id="path853"
   inkscape:connector-curvature="0"
   class="st1"
   d="M12.5,6.7L12.5,6.7c-0.2,0-0.4-0.2-0.3-0.4l0.5-3   C12.7,3.1,13,2.9,13.2,3l0,0c0.2,0.1,0.4,0.3,0.3,0.5l-0.5,3C12.9,6.7,12.7,6.8,12.5,6.7z" />
</g>
<g
   id="Layer_2"
   style="fill:#ffffff">
	<path
   class="st4"
   d="M6.7,5.1C6.4,5,6.1,5.2,6.1,5.4L5,9.3C4.9,9.6,5.1,9.8,5.4,9.9C5.6,10,5.9,9.8,6,9.6L7,5.7   C7.1,5.4,7,5.2,6.7,5.1z"
   id="path12"
   style="fill:#ffffff" />
	<path
   class="st4"
   d="M9.7,5C9.4,4.9,9.2,5.1,9.1,5.4L8,9.2C8,9.5,8.1,9.8,8.4,9.8C8.7,9.9,8.9,9.8,9,9.5l1.1-3.9   C10.1,5.4,10,5.1,9.7,5z"
   id="path14"
   style="fill:#ffffff" />
</g>
</svg>